<svg height="511pt" viewBox="-44 0 511 511.84" width="511pt" xmlns="http://www.w3.org/2000/svg"><path d="m212.003906 7.984375c44.238282 0 80 35.839844 80 80 0 44.238281-35.761718 80-80 80-44.167968 0-80-35.761719-80-80 0-44.160156 35.839844-80 80-80zm0 0" fill="#ed5565"/><path d="m415.683594 297.183594-28.320313 28.320312-118.800781-118.800781-5.597656-5.679687 28.238281-28.238282zm0 0" fill="#656d78"/><path d="m268.5625 206.703125 113.121094 113.121094-16.960938 17.039062-11.359375-11.277343-90.480469-90.5625-11.277343-11.28125zm0 0" fill="#e6e9ed"/><path d="m155.523438 206.703125-113.199219 113.121094v.078125l-5.601563 5.601562-28.320312-28.320312 124.480468-124.398438 28.242188 28.238282zm0 0" fill="#656d78"/><path d="m172.484375 223.664062-101.839844 101.839844-11.359375 11.28125-16.960937-16.882812v-.078125l113.199219-113.121094zm0 0" fill="#e6e9ed"/><g fill="#eac6bb"><path d="m135.683594 379.183594c7.832031 7.832031 7.832031 20.480468 0 28.320312l-5.679688 5.679688c-7.761718 7.761718-20.488281 7.761718-28.238281 0-7.832031-7.839844-7.832031-20.488282 0-28.320313l2.804687-2.878906 2.800782-2.800781c7.832031-7.757813 20.472656-7.757813 28.3125 0zm0 0"/><path d="m163.925781 407.503906c7.832031 7.761719 7.832031 20.480469 0 28.230469l-5.601562 5.679687c-7.839844 7.84375-20.488281 7.84375-28.320313 0-7.761718-7.757812-7.761718-20.476562 0-28.230468l5.679688-5.679688c7.839844-7.839844 20.480468-7.839844 28.242187 0zm0 0"/><path d="m192.242188 435.742188c7.832031 7.84375 7.832031 20.488281 0 28.320312l-5.679688 5.679688c-7.765625 7.769531-20.488281 7.769531-28.238281 0-7.839844-7.832032-7.839844-20.476563 0-28.316407l5.679687-5.683593c7.761719-7.757813 20.398438-7.757813 28.238282 0zm0 0"/><path d="m220.5625 464.0625c7.761719 7.839844 7.761719 20.488281 0 28.242188l-2.878906 2.878906v.082031l-2.800782 2.71875c-7.839843 7.839844-20.488281 7.839844-28.320312 0-7.765625-7.761719-7.765625-20.480469 0-28.242187l5.679688-5.679688c7.84375-7.839844 20.480468-7.839844 28.320312 0zm0 0"/><path d="m262.882812 235.023438 90.480469 90.5625-28.238281 50.796874-73.441406-73.511718c-6.320313-6.238282-16.398438-6.238282-22.640625 0l-36.800781 36.800781c-7.765626 7.761719-20.484376 7.761719-28.238282 0-7.839844-7.832031-7.839844-20.480469 0-28.320313l2.800782-2.800781 45.28125-45.199219 5.597656-5.679687zm0 0"/></g><path d="m229.042969 302.863281c6.242187-6.238281 16.320312-6.238281 22.640625 0l73.441406 73.511719h.078125l8.488281 8.488281c7.761719 7.832031 7.761719 20.480469 0 28.320313-7.839844 7.761718-20.488281 7.832031-28.320312 0 7.832031 7.832031 7.832031 20.480468 0 28.230468-7.839844 7.84375-20.480469 7.84375-28.238282 0 7.765626 7.84375 7.765626 20.488282-.082031 28.320313-7.757812 7.839844-20.398437 7.839844-28.238281 0 7.839844 7.839844 7.839844 20.488281 0 28.242187-7.832031 7.839844-20.480469 7.839844-28.320312.078126l-2.800782-2.796876v-.082031l2.878906-2.878906c7.761719-7.761719 7.761719-20.402344 0-28.242187-7.839843-7.832032-20.484374-7.832032-28.316406 0 7.832032-7.832032 7.832032-20.480469 0-28.320313-7.84375-7.757813-20.488281-7.757813-28.242187 0l-5.679688 5.679687 5.601563-5.679687c7.832031-7.757813 7.832031-20.476563 0-28.230469-7.769532-7.839844-20.410156-7.839844-28.242188 0 7.832032-7.839844 7.832032-20.488281 0-28.320312-7.839844-7.769532-20.488281-7.769532-28.320312 0l-2.800782 2.800781-33.917968-56.480469 90.480468-90.488281 50.878907 28.242187.082031.078126-45.28125 45.199218-2.800781 2.800782c-7.839844 7.839843-7.839844 20.488281 0 28.320312 7.761719 7.757812 20.480469 7.757812 28.242187 0zm0 0" fill="#d3b1a9"/><path d="m104.589844 390c-2.722656 0-5.371094-1.382812-6.867188-3.878906l-33.933594-56.511719c-2.273437-3.792969-1.050781-8.707031 2.742188-10.976563 3.800781-2.28125 8.703125-1.046874 10.976562 2.742188l33.9375 56.511719c2.269532 3.792969 1.046876 8.707031-2.746093 10.976562-1.289063.769531-2.710938 1.136719-4.109375 1.136719zm0 0"/><path d="m212.027344 271.246094c-1.3125 0-2.648438-.316406-3.871094-1.007813l-50.894531-28.277343c-3.867188-2.152344-5.257813-7.015626-3.113281-10.871094 2.144531-3.859375 7.023437-5.265625 10.871093-3.113282l50.894531 28.28125c3.867188 2.148438 5.257813 7.015626 3.113282 10.871094-1.464844 2.632813-4.183594 4.117188-7 4.117188zm0 0"/><path d="m59.324219 344.792969c-2.046875 0-4.097657-.785157-5.65625-2.34375-3.128907-3.128907-3.128907-8.183594 0-11.3125l113.136719-113.160157c3.128906-3.128906 8.183593-3.128906 11.3125 0 3.125 3.128907 3.125 8.183594 0 11.3125l-113.136719 113.160157c-1.558594 1.566406-3.609375 2.34375-5.65625 2.34375zm0 0"/><path d="m172.460938 231.640625c-2.050782 0-4.097657-.785156-5.65625-2.34375l-17.015626-17.015625c-3.128906-3.128906-3.128906-8.183594 0-11.3125 3.125-3.128906 8.183594-3.128906 11.3125 0l17.015626 17.015625c3.125 3.128906 3.125 8.183594 0 11.3125-1.570313 1.558594-3.609376 2.34375-5.65625 2.34375zm0 0"/><path d="m59.324219 344.792969c-2.046875 0-4.097657-.785157-5.65625-2.34375l-17.015625-17.035157c-3.128906-3.125-3.128906-8.191406 0-11.308593 3.128906-3.128907 8.183594-3.128907 11.3125 0l17.015625 17.03125c3.128906 3.128906 3.128906 8.191406 0 11.3125-1.558594 1.566406-3.609375 2.34375-5.65625 2.34375zm0 0"/><path d="m325.117188 384.390625c-1.3125 0-2.648438-.320313-3.882813-1.007813-3.855469-2.152343-5.246094-7.015624-3.101563-10.878906l28.269532-50.855468c2.144531-3.847657 7-5.257813 10.882812-3.105469 3.855469 2.152343 5.246094 7.015625 3.101563 10.882812l-28.269531 50.855469c-1.464844 2.621094-4.191407 4.109375-7 4.109375zm0 0"/><path d="m217.675781 265.640625c-2.9375 0-5.761719-1.617187-7.167969-4.425781-1.976562-3.949219-.375-8.757813 3.578126-10.734375l45.222656-22.625c3.945312-1.96875 8.757812-.375 10.734375 3.578125 1.976562 3.949218.378906 8.757812-3.574219 10.734375l-45.226562 22.625c-1.140626.574219-2.367188.847656-3.566407.847656zm0 0"/><path d="m364.707031 344.839844c-2.046875 0-4.09375-.785156-5.65625-2.34375l-113.125-113.136719c-3.128906-3.128906-3.128906-8.183594 0-11.3125 3.125-3.125 8.183594-3.125 11.308594 0l113.128906 113.136719c3.128907 3.128906 3.128907 8.183594 0 11.3125-1.558593 1.566406-3.605469 2.34375-5.65625 2.34375zm0 0"/><path d="m251.578125 231.703125c-2.046875 0-4.09375-.78125-5.652344-2.34375-3.128906-3.128906-3.128906-8.183594 0-11.3125l17.007813-17.015625c3.125-3.128906 8.183594-3.128906 11.308594 0 3.128906 3.128906 3.128906 8.183594 0 11.3125l-17.007813 17.015625c-1.558594 1.5625-3.605469 2.34375-5.65625 2.34375zm0 0"/><path d="m364.707031 344.839844c-2.046875 0-4.09375-.785156-5.65625-2.34375-3.125-3.128906-3.125-8.183594 0-11.3125l17.023438-17.03125c3.128906-3.128906 8.1875-3.128906 11.3125 0 3.128906 3.128906 3.128906 8.183594 0 11.3125l-17.023438 17.03125c-1.558593 1.566406-3.605469 2.34375-5.65625 2.34375zm0 0"/><path d="m166.796875 316.480469c-2.050781 0-4.097656-.785157-5.65625-2.34375-3.128906-3.128907-3.128906-8.191407 0-11.3125l50.917969-50.871094c3.128906-3.128906 8.183594-3.128906 11.3125 0 3.128906 3.125 3.128906 8.191406 0 11.3125l-50.917969 50.871094c-1.570313 1.566406-3.609375 2.34375-5.65625 2.34375zm0 0"/><path d="m192.269531 347.625c-2.050781 0-4.097656-.785156-5.65625-2.34375-3.128906-3.128906-3.128906-8.183594 0-11.3125l36.757813-36.769531c3.128906-3.128907 8.183594-3.128907 11.3125 0 3.128906 3.128906 3.128906 8.183593 0 11.3125l-36.757813 36.769531c-1.5625 1.558594-3.609375 2.34375-5.65625 2.34375zm0 0"/><path d="m251.660156 310.855469c-2.046875 0-4.105468-.785157-5.664062-2.34375-1.503906-1.511719-3.511719-2.351563-5.648438-2.351563-2.144531 0-4.152344.832032-5.664062 2.351563-3.128906 3.128906-8.183594 3.128906-11.3125 0-3.128906-3.128907-3.128906-8.183594 0-11.3125 4.527344-4.527344 10.5625-7.03125 16.96875-7.039063h.007812c6.417969 0 12.441406 2.503906 16.976563 7.039063 3.121093 3.136719 3.121093 8.191406-.007813 11.320312-1.558594 1.558594-3.609375 2.335938-5.65625 2.335938zm0 0"/><path d="m325.171875 384.359375c-2.046875 0-4.097656-.785156-5.65625-2.34375l-73.503906-73.503906c-3.128907-3.128907-3.128907-8.183594 0-11.3125 3.128906-3.128907 8.183593-3.128907 11.3125 0l73.503906 73.503906c3.128906 3.128906 3.128906 8.183594 0 11.3125-1.566406 1.558594-3.617187 2.34375-5.65625 2.34375zm0 0"/><path d="m178.132812 353.457031c-7.167968 0-14.335937-2.730469-19.800781-8.175781-10.910156-10.914062-10.910156-28.679688 0-39.59375 3.128907-3.128906 8.183594-3.128906 11.3125 0 3.128907 3.128906 3.128907 8.183594 0 11.3125-4.679687 4.679688-4.679687 12.289062 0 16.96875 4.679688 4.679688 12.296875 4.65625 16.976563-.007812 3.125-3.113282 8.183594-3.128907 11.3125.015624 3.117187 3.128907 3.117187 8.183594-.019532 11.3125-5.445312 5.445313-12.621093 8.167969-19.78125 8.167969zm0 0"/><path d="m200.722656 511.832031c-.007812 0-.007812 0 0 0-7.480468 0-14.503906-2.902343-19.789062-8.191406-10.914063-10.929687-10.90625-28.695313.007812-39.59375l5.65625-5.671875c10.582032-10.574219 29.007813-10.574219 39.589844.015625 10.914062 10.914063 10.914062 28.664063 0 39.578125l-5.664062 5.664062c-5.296876 5.289063-12.320313 8.199219-19.800782 8.199219zm5.65625-45.65625c-3.191406 0-6.191406 1.238281-8.464844 3.503907l-5.652343 5.671874c-4.691407 4.671876-4.691407 12.289063-.007813 16.976563 2.253906 2.246094 5.261719 3.503906 8.460938 3.503906h.007812c3.203125 0 6.21875-1.246093 8.496094-3.519531l5.664062-5.664062c4.671876-4.664063 4.671876-12.273438 0-16.945313-2.277343-2.269531-5.292968-3.527344-8.503906-3.527344zm0 0"/><path d="m172.4375 483.550781c-7.480469 0-14.503906-2.910156-19.785156-8.191406-10.914063-10.910156-10.914063-28.679687 0-39.605469l5.664062-5.664062c10.558594-10.5625 29.007813-10.570313 39.582032.007812 5.289062 5.285156 8.203124 12.316406 8.203124 19.796875s-2.914062 14.503907-8.203124 19.800781l-5.65625 5.65625c-5.292969 5.289063-12.328126 8.199219-19.804688 8.199219zm5.671875-45.65625c-3.203125 0-6.210937 1.242188-8.480469 3.503907l-5.664062 5.664062c-4.679688 4.679688-4.679688 12.296875 0 16.976562 2.261718 2.257813 5.269531 3.503907 8.472656 3.503907 3.207031 0 6.222656-1.246094 8.503906-3.519531l5.65625-5.65625c2.261719-2.261719 3.511719-5.277344 3.511719-8.488282 0-3.207031-1.25-6.214844-3.511719-8.488281-2.265625-2.269531-5.289062-3.496094-8.488281-3.496094zm0 0"/><path d="m144.171875 455.265625c-7.472656 0-14.503906-2.914063-19.792969-8.203125-5.285156-5.261719-8.199218-12.292969-8.207031-19.773438-.007813-7.488281 2.902344-14.519531 8.199219-19.824218l5.65625-5.65625c10.585937-10.585938 29.039062-10.570313 39.59375 0 5.285156 5.289062 8.199218 12.320312 8.199218 19.800781s-2.914062 14.503906-8.199218 19.796875l-5.65625 5.65625c-5.296875 5.289062-12.328125 8.203125-19.792969 8.203125zm5.65625-45.65625c-3.199219 0-6.214844 1.246094-8.488281 3.511719l-5.65625 5.65625c-2.261719 2.269531-3.511719 5.285156-3.511719 8.496094 0 3.207031 1.25 6.207031 3.511719 8.46875 4.542968 4.546874 12.441406 4.523437 16.96875.011718l5.65625-5.65625c2.261718-2.265625 3.511718-5.28125 3.511718-8.488281 0-3.210937-1.25-6.21875-3.511718-8.488281-2.265625-2.273438-5.28125-3.511719-8.480469-3.511719zm0 0"/><path d="m115.882812 426.984375c-7.488281 0-14.511718-2.914063-19.796874-8.199219-5.289063-5.289062-8.210938-12.320312-8.210938-19.800781s2.921875-14.503906 8.210938-19.800781l5.652343-5.65625c10.578125-10.574219 29.019531-10.574219 39.59375 0 5.289063 5.289062 8.207031 12.320312 8.199219 19.800781 0 7.480469-2.910156 14.503906-8.199219 19.800781l-5.664062 5.664063c-5.273438 5.277343-12.304688 8.191406-19.785157 8.191406zm5.664063-45.65625c-3.199219 0-6.214844 1.246094-8.488281 3.511719l-5.65625 5.65625c-2.269532 2.273437-3.519532 5.28125-3.519532 8.488281s1.25 6.207031 3.519532 8.488281c4.53125 4.527344 12.433594 4.527344 16.960937 0l5.664063-5.664062c2.265625-2.257813 3.511718-5.273438 3.511718-8.480469s-1.238281-6.214844-3.511718-8.488281c-2.261719-2.265625-5.28125-3.511719-8.480469-3.511719zm0 0"/><path d="m234.644531 511.839844c-7.167969 0-14.328125-2.726563-19.777343-8.167969-3.128907-3.128906-3.128907-8.183594 0-11.3125 3.128906-3.128906 8.183593-3.128906 11.3125 0 4.65625 4.664063 12.265624 4.65625 16.96875-.023437 4.671874-4.671876 4.679687-12.289063.007812-16.96875-1.558594-1.558594-2.335938-3.605469-2.335938-5.65625 0-2.046876.792969-4.09375 2.351563-5.65625 3.128906-3.109376 8.183594-3.125 11.3125.015624 2.253906 2.257813 5.253906 3.503907 8.457031 3.503907h.007813c3.199219 0 6.214843-1.246094 8.488281-3.511719 4.671875-4.6875 4.679688-12.292969.007812-16.964844-1.5625-1.5625-2.34375-3.609375-2.34375-5.65625 0-2.050781.78125-4.097656 2.34375-5.65625 3.125-3.128906 8.183594-3.128906 11.3125 0 4.671876 4.671875 12.277344 4.664063 16.964844-.007812 4.671875-4.671875 4.679688-12.289063.007813-16.960938-1.558594-1.558594-2.34375-3.609375-2.34375-5.664062 0-2.046875.785156-4.097656 2.34375-5.648438 3.128906-3.128906 8.183593-3.128906 11.3125 0 4.527343 4.527344 12.417969 4.519532 16.953125-.015625 4.679687-4.679687 4.6875-12.28125.015625-16.953125-3.128907-3.128906-3.128907-8.183594 0-11.3125 3.128906-3.125 8.183593-3.125 11.3125 0 10.902343 10.90625 10.894531 28.664063-.015625 39.578125-5.289063 5.296875-12.320313 8.207031-19.808594 8.207031-.097656 0-.183594 0-.289062 0 .082031 7.265626-2.65625 14.550782-8.183594 20.089844-5.464844 5.453125-12.632813 8.175782-19.808594 8.175782-.09375 0-.191406 0-.292969 0 .078125 7.261718-2.648437 14.550781-8.167969 20.09375-5.296874 5.296874-12.328124 8.207031-19.808593 8.207031 0-.015625-.191407 0-.296875 0 .0625 7.265625-2.664063 14.546875-8.191406 20.082031-5.472657 5.457031-12.648438 8.183594-19.816407 8.183594zm0 0"/><path d="m220.53125 506.015625c-2.046875 0-4.09375-.785156-5.65625-2.34375l-2.839844-2.839844c-3.128906-3.128906-3.128906-8.183593 0-11.3125 3.128906-3.128906 8.183594-3.128906 11.3125 0l2.839844 2.839844c3.128906 3.128906 3.128906 8.183594 0 11.3125-1.566406 1.558594-3.617188 2.34375-5.65625 2.34375zm0 0"/><path d="m248.828125 477.71875c-2.046875 0-4.097656-.78125-5.65625-2.34375l-8.503906-8.503906c-3.128907-3.128906-3.128907-8.183594 0-11.3125 3.128906-3.125 8.183593-3.125 11.3125 0l8.503906 8.503906c3.128906 3.128906 3.128906 8.183594 0 11.3125-1.570313 1.5625-3.609375 2.34375-5.65625 2.34375zm0 0"/><path d="m277.109375 449.433594c-2.050781 0-4.097656-.785156-5.65625-2.34375l-8.496094-8.503906c-3.128906-3.128907-3.128906-8.195313 0-11.3125 3.128907-3.128907 8.183594-3.128907 11.3125 0l8.496094 8.503906c3.125 3.125 3.125 8.191406 0 11.3125-1.5625 1.566406-3.609375 2.34375-5.65625 2.34375zm0 0"/><path d="m305.394531 421.136719c-2.046875 0-4.09375-.785157-5.65625-2.34375l-8.496093-8.480469c-3.125-3.121094-3.125-8.183594 0-11.3125 3.128906-3.128906 8.1875-3.128906 11.3125 0l8.496093 8.488281c3.128907 3.121094 3.128907 8.183594 0 11.3125-1.558593 1.558594-3.605469 2.335938-5.65625 2.335938zm0 0"/><path d="m333.683594 392.855469c-2.046875 0-4.09375-.785157-5.65625-2.34375l-8.503906-8.503907c-3.128907-3.128906-3.128907-8.183593 0-11.3125 3.128906-3.128906 8.183593-3.128906 11.3125 0l8.503906 8.503907c3.128906 3.128906 3.128906 8.183593 0 11.3125-1.558594 1.566406-3.609375 2.34375-5.65625 2.34375zm0 0"/><path d="m36.699219 333.449219c-2.046875 0-4.09375-.785157-5.65625-2.34375l-28.277344-28.265625c-1.503906-1.503906-2.34375-3.527344-2.34375-5.65625 0-2.121094.839844-4.160156 2.34375-5.65625l124.453125-124.457032c1.503906-1.503906 3.527344-2.34375 5.65625-2.34375s4.160156.839844 5.65625 2.34375l28.273438 28.28125c3.128906 3.128907 3.128906 8.183594 0 11.3125l-124.449219 124.441407c-1.558594 1.566406-3.609375 2.34375-5.65625 2.34375zm-16.96875-36.265625 16.96875 16.953125 113.136719-113.128907-16.960938-16.96875zm0 0"/><path d="m387.378906 333.449219c-2.046875 0-4.09375-.785157-5.65625-2.34375l-124.429687-124.417969c-3.128907-3.128906-3.128907-8.183594 0-11.3125l28.269531-28.277344c3-3 8.3125-3 11.3125 0l124.449219 124.429688c1.503906 1.503906 2.34375 3.535156 2.34375 5.65625 0 2.128906-.839844 4.160156-2.34375 5.65625l-28.289063 28.265625c-1.558594 1.566406-3.605468 2.34375-5.65625 2.34375zm-113.117187-132.417969 113.117187 113.113281 16.976563-16.953125-113.136719-113.128906zm0 0"/><path d="m212.042969 176c-48.519531 0-88-39.480469-88-88s39.480469-88 88-88 88 39.480469 88 88-39.480469 88-88 88zm0-160c-39.703125 0-72 32.296875-72 72s32.296875 72 72 72 72-32.296875 72-72-32.296875-72-72-72zm0 0"/><path d="m244.171875 127.992188h-64c-4.425781 0-8-3.578126-8-8 0-4.425782 3.574219-8 8-8h64c4.425781 0 8 3.574218 8 8 0 4.421874-3.582031 8-8 8zm0 0"/><path d="m212.171875 127.992188c-4.425781 0-8-3.578126-8-8v-71.992188c0-4.425781 3.574219-8 8-8s8 3.574219 8 8v71.992188c0 4.421874-3.582031 8-8 8zm0 0"/><path d="m244.171875 64h-64c-4.425781 0-8-3.574219-8-8s3.574219-8 8-8h64c4.425781 0 8 3.574219 8 8s-3.582031 8-8 8zm0 0"/><path d="m252.171875 88h-16c-4.425781 0-8-3.574219-8-8s3.574219-8 8-8h16c4.425781 0 8 3.574219 8 8s-3.582031 8-8 8zm0 0"/><path d="m188.171875 88h-16c-4.425781 0-8-3.574219-8-8s3.574219-8 8-8h16c4.425781 0 8 3.574219 8 8s-3.582031 8-8 8zm0 0"/></svg>