<svg height="512" viewBox="0 0 58 58" width="512" xmlns="http://www.w3.org/2000/svg"><g id="094---Law" fill="none"><path id="Rectangle-path" d="m27.964 24.95h4v10.02h-4z" fill="#603e26" transform="matrix(.707 -.707 .707 .707 -12.409 29.963)"/><path id="Shape" d="m6 48h14c1.6568542 0 3 1.3431458 3 3v4h-20v-4c0-1.6568542 1.34314575-3 3-3z" fill="#a56a43"/><g fill="#805333"><path id="Shape" d="m32.79 24.3-8.49 8.49c-.3751365.3755541-.8841815.5865733-1.415.5865733s-1.0398635-.2110192-1.415-.5865733l-1.41-1.42 4-7.5 7.31-3.81 1.42 1.41c.3755541.3751365.5865733.8841815.5865733 1.415s-.2110192 1.0398635-.5865733 1.415z"/><path id="Shape" d="m15.11 37.74-1.42 1.41c-.3900375.3877236-1.0199625.3877236-1.41 0l-11.28-11.31c-.18931265-.1877666-.29579832-.4433625-.29579832-.71s.10648567-.5222334.29579832-.71l1.38-1.42c1.17127019-1.1698135 3.06872981-1.1698135 4.24 0l5.25 3.24 3.24 5.24c.567938.5632998.887395 1.3300874.887395 2.13s-.319457 1.5667002-.887395 2.13z"/><path id="Shape" d="m37.74 15.11 1.41-1.42c.3877236-.3900375.3877236-1.0199625 0-1.41l-11.31-11.28c-.1877666-.18931265-.4433625-.29579832-.71-.29579832s-.5222334.10648567-.71.29579832l-1.42 1.38c-1.1698135 1.17127019-1.1698135 3.06872981 0 4.24l2.65 5.16 5.83 3.33c.5632998.567938 1.3300874.887395 2.13.887395s1.5667002-.319457 2.13-.887395z"/><path id="Shape" d="m2 53h22c1.1045695 0 2 .8954305 2 2v2c0 .5522847-.4477153 1-1 1h-24c-.55228475 0-1-.4477153-1-1v-2c0-1.1045695.8954305-2 2-2z"/></g><path id="Shape" d="m23 44c-.5522847 0-1-.4477153-1-1v-4c0-.5522847.4477153-1 1-1s1 .4477153 1 1v4c0 .5522847-.4477153 1-1 1z" fill="#f3d55b"/><path id="Shape" d="m31 48h-4c-.5522847 0-1-.4477153-1-1s.4477153-1 1-1h4c.5522847 0 1 .4477153 1 1s-.4477153 1-1 1z" fill="#f3d55b"/><path id="Shape" d="m26 45c-.265803.0015368-.5212812-.1028135-.71-.29-.1893127-.1877666-.2957983-.4433625-.2957983-.71s.1064856-.5222334.2957983-.71l3-3c.3921222-.3921221 1.0278778-.3921221 1.42 0 .3921221.3921222.3921221 1.0278778 0 1.42l-3 3c-.1887188.1871865-.444197.2915368-.71.29z" fill="#f3d55b"/><path id="Shape" d="m33.49 17.94-15.55 15.55c-.3751365.3755541-.8841815.5865733-1.415.5865733s-1.0398635-.2110192-1.415-.5865733l-6.36-6.36 5.82-9.33 2.83-2.8 9.73-6.22 6.36 6.36c.7622858.777687.7622858 2.022313 0 2.8z" fill="#a56a43"/><path id="Shape" d="m27.13 8.75-12.73 12.72-2.83 2.83-2.82 2.83-2.13-2.13c-.37555409-.3751365-.58657331-.8841815-.58657331-1.415s.21101922-1.0398635.58657331-1.415l15.56-15.55c.3751365-.37555409.8841815-.58657331 1.415-.58657331s1.0398635.21101922 1.415.58657331z" fill="#cb8252"/><path id="Shape" d="m56.83 51.17-2.12-2.12-2.83-2.83-13.44-13.43-2.82-2.79c-.3751365-.3755541-.8841815-.5865733-1.415-.5865733s-1.0398635.2110192-1.415.5865733l-2.79 2.79c-.3755541.3751365-.5865733.8841815-.5865733 1.415s.2110192 1.0398635.5865733 1.415l2.83 2.83 13.39 13.43 2.83 2.83 2.12 2.12c1.0110616 1.0110616 2.484716 1.4059261 3.8658519 1.0358519 1.3811358-.3700742 2.4599258-1.4488642 2.83-2.83.3700742-1.3811359-.0247903-2.8547903-1.0358519-3.8658519z" fill="#805333"/><path id="Shape" d="m38.44 32.79-5.65 5.65-2.79-2.82c-.3755541-.3751365-.5865733-.8841815-.5865733-1.415s.2110192-1.0398635.5865733-1.415l2.79-2.79c.3751365-.3755541.8841815-.5865733 1.415-.5865733s1.0398635.2110192 1.415.5865733z" fill="#f3d55b"/><path id="Rectangle-path" d="m46.455 48.46h8v4h-8z" fill="#bdc3c7" transform="matrix(.707 -.707 .707 .707 -20.903 50.457)"/><path id="Shape" d="m56.83 56.83c-.750273.7511082-1.768363 1.1731466-2.83 1.1731466s-2.079727-.4220384-2.83-1.1731466l-2.12-2.12 5.66-5.66 2.12 2.12c.7511082.750273 1.1731466 1.768363 1.1731466 2.83s-.4220384 2.079727-1.1731466 2.83z" fill="#603e26"/></g></svg>